<?xml version="1.0" encoding="utf-8"?>
<!-- Generator: Adobe Illustrator 14.0.0, SVG Export Plug-In  -->
<!DOCTYPE svg PUBLIC "-//W3C//DTD SVG 1.1//EN" "http://www.w3.org/Graphics/SVG/1.1/DTD/svg11.dtd" [
	<!ENTITY ns_flows "http://ns.adobe.com/Flows/1.0/">
]>
<svg version="1.1"
	 xmlns="http://www.w3.org/2000/svg" xmlns:xlink="http://www.w3.org/1999/xlink" xmlns:a="http://ns.adobe.com/AdobeSVGViewerExtensions/3.0/"
	 x="0px" y="0px" width="643px" height="169px" viewBox="-10.008 -6.004 643 169" enable-background="new -10.008 -6.004 643 169"
	 xml:space="preserve">
<defs>
</defs>
<path fill="#FFFFFF" d="M317.939,97.105h-10.131c0-0.765,3.822-43.965,3.822-44.921c0.383-10.514,1.529-31.541,1.529-31.541
	s1.338,21.218,1.721,31.541C314.881,53.141,317.939,96.341,317.939,97.105 M206.106,47.792c-2.745,5.038-16.813,28.92-21.955,37.649
	c-5.918,10.046-20.538,34.49-23.711,39.499c-2.755,3.924-5.489,6.307-8.948,4.27c-3.787-2.232-3.059-5.353-0.769-9.993
	c3.036-5.532,17.491-30.073,23.022-39.461c5.336-9.06,19.307-32.776,22.381-37.62c3.822-5.736,5.967-8.245,10.084-5.819
	C209.834,38.45,209.726,41.271,206.106,47.792 M103.65,77.417c0,11.659-0.191,40.142-0.382,46.067
	c-0.384,4.779-1.53,8.221-5.544,8.221c-4.396,0-5.352-3.06-5.734-8.221c-0.191-6.308-0.191-34.79-0.191-45.686
	c0-10.514,0-38.039,0.191-43.774c0.383-6.882,0.955-10.131,5.734-10.131c4.206,0,5.544,2.485,5.734,9.94
	C103.65,39.568,103.65,67.285,103.65,77.417 M64.746,54.079c-0.056,8.144-0.092,16.837-0.092,22.955
	c0,3.696,0.014,8.414,0.036,13.459c-0.446-1.472-0.976-2.739-1.61-3.71c-1.91-5.353-6.308-8.984-13.572-9.939
	c7.074-1.147,10.324-4.779,12.427-10.896C63.385,63.335,64.248,59.005,64.746,54.079 M38.23,110.678c0,4.587,0,14.527-0.191,17.586
	c-0.19,4.205-1.91,5.735-4.779,5.735h-6.881V88.886h6.881c2.295,0,4.397,1.338,4.589,5.544
	C38.039,97.487,38.23,105.898,38.23,110.678 M37.849,45.877c0,7.455,0,14.526-0.191,17.204c-0.19,4.204-2.866,5.543-4.397,5.543
	h-6.881V24.467h5.353c3.25,0,5.544,2.294,5.735,5.926C37.657,33.26,37.849,39.568,37.849,45.877 M320.998,155.599h26.57
	L333.422,2.676h-37.463h-1.149h-25.994c0,0-11.278,52.566-11.66,61.934c-0.573-9.176-10.323-61.934-10.323-61.934h-26.57
	l4.318,17.412c-1.926-1.575-4.099-3.097-6.572-4.554c-20.258-11.933-34.422-4.082-44.037,11.109
	c-1.717,2.538-16.045,26.488-23.225,38.676c-5.424,9.208-15.068,25.796-20.563,35.393c0.038-8.211,0.038-17.048,0.038-24.633
	c0-15.102,0-39.951-0.383-45.878C128.5,10.704,118.752,0,97.342,0C74.116,0,65.827,13.624,65.076,31.276
	c-0.529-6.992-1.766-13.789-3.716-17.132C58.11,6.689,50.082,2.676,38.23,2.676H0v152.923h38.422
	c13.572,0,20.645-4.397,23.895-11.852c1.539-2.354,2.645-6.608,3.389-11.661c2.59,15.188,12.432,23.513,31.637,23.513
	c15.601,0,24.918-5.706,29.369-16.314c2.873,3.69,6.924,7.138,12.324,10.319c18.941,11.157,32.901,6.29,44.105-10.848
	c4.889-7.547,16.24-26.818,24.584-40.982c7.664-13.012,20.277-34.423,22.955-39.723c0.822-1.644,1.505-3.247,2.117-4.832
	l10.978,44.269v58.111h26.953V96.723l23.298-86.84L278.18,155.599h26.188c0,0,2.104-26.762,2.485-38.422h12.043
	C319.277,128.837,320.998,155.599,320.998,155.599 M366.152,5.97h20.798V0.577h-26.382v154.059h5.584V79.147h18.872v-5.007h-18.872
	V5.97z M400.969,154.636h5.584V0.577h-5.584V154.636z M439.076,5.97h12.709V0.577h-30.811V5.97h12.518v148.666h5.584V5.97z
	 M489.566,154.636h6.547V0.577h-5.199v125.558L473.197,0.577h-7.125v154.059h5.199V24.457L489.566,154.636z M513.002,154.636H539
	v-5.393h-20.414V79.147h17.332v-5.2h-17.332V5.97h20.221V0.577h-25.805V154.636z M566.133,65.09
	c-4.045-11.362-10.207-26.769-10.207-40.248c0-14.059,3.082-19.065,9.436-19.065c6.932,0,9.244,5.777,9.244,16.947v17.909h5.584
	V22.53c0-13.479-3.852-22.53-14.635-22.53c-8.859,0-15.406,7.125-15.406,24.264c0,13.673,4.043,23.879,10.398,42.366
	c0.963,2.889,4.045,10.784,5.586,15.599c6.547,19.257,8.666,28.693,8.666,48.528c0,15.599-3.854,19.257-9.438,19.257
	c-5.969,0-8.859-3.466-8.859-13.095v-20.797h-5.584v23.301c0,10.014,5.393,16.176,14.443,16.176c8.281,0,15.406-5.392,15.406-25.612
	c0-18.295-2.889-30.233-9.051-49.49C570.176,75.681,567.672,69.325,566.133,65.09 M617.99,40.633h5.586V22.53
	c0-13.479-3.852-22.53-14.637-22.53c-8.857,0-15.406,7.125-15.406,24.264c0,13.673,4.045,23.879,10.4,42.366
	c0.963,2.889,4.043,10.784,5.584,15.599c6.547,19.257,8.666,28.693,8.666,48.528c0,15.599-3.852,19.257-9.436,19.257
	c-5.971,0-8.859-3.466-8.859-13.095v-20.797h-5.584v23.301c0,10.014,5.393,16.176,14.443,16.176c8.279,0,15.404-5.392,15.404-25.612
	c0-18.295-2.887-30.233-9.051-49.49c-1.539-4.815-4.043-11.171-5.584-15.406c-4.043-11.362-10.207-26.769-10.207-40.248
	c0-14.059,3.082-19.065,9.438-19.065c6.932,0,9.242,5.777,9.242,16.947V40.633z"/>
<rect x="20.35" y="6" fill="none" width="624.154" height="155.599"/>
</svg>
