<?xml version="1.0" encoding="utf-8"?>
<!-- Generator: Adobe Illustrator 14.0.0, SVG Export Plug-In  -->
<!DOCTYPE svg PUBLIC "-//W3C//DTD SVG 1.1//EN" "http://www.w3.org/Graphics/SVG/1.1/DTD/svg11.dtd" [
	<!ENTITY ns_flows "http://ns.adobe.com/Flows/1.0/">
]>
<svg version="1.1"
	 xmlns="http://www.w3.org/2000/svg" xmlns:xlink="http://www.w3.org/1999/xlink" xmlns:a="http://ns.adobe.com/AdobeSVGViewerExtensions/3.0/"
	 x="0px" y="0px" width="20px" height="20px" viewBox="-0.575 -3.819 20 20" enable-background="new -0.575 -3.819 20 20"
	 xml:space="preserve">
<defs>
</defs>
<path fill="#28AADB" d="M8.294,11.064c1.031,1.091,1.083,2.718,0.113,3.635l0,0c-0.969,0.916-2.591,0.775-3.622-0.315l-3.977-4.205
	c-1.032-1.09-1.082-2.718-0.113-3.634l0,0c0.969-0.917,2.591-0.775,3.623,0.315L8.294,11.064z"/>
<path fill="#28AADB" d="M8.903,14.276c-0.938,1.104-2.572,1.255-3.652,0.339l0,0c-1.08-0.918-1.194-2.555-0.257-3.659l8.509-10.019
	c0.937-1.103,2.571-1.255,3.652-0.338l0,0c1.079,0.917,1.194,2.555,0.257,3.659L8.903,14.276z"/>
</svg>
